<svg width="23.000000" height="23.000000" viewBox="0 0 23 23" fill="none" xmlns="http://www.w3.org/2000/svg" xmlns:xlink="http://www.w3.org/1999/xlink">
	<desc>
			Created with Pixso.
	</desc>
	<defs/>
	<path d="M5 0C2.23828 0 0 2.23853 0 5C0 7.76147 2.23828 10 5 10C7.76172 10 10 7.76147 10 5C10 2.23853 7.76172 0 5 0ZM16 0C14.3428 0 13 1.34326 13 3L13 7C13 8.65674 14.3428 10 16 10L20 10C21.6572 10 23 8.65674 23 7L23 3C23 1.34326 21.6572 0 20 0L16 0ZM3 13C1.34277 13 0 14.3433 0 16L0 20C0 21.6567 1.34277 23 3 23L7 23C8.65723 23 10 21.6567 10 20L10 16C10 14.3433 8.65723 13 7 13L3 13ZM13 18C13 15.2385 15.2383 13 18 13C20.7617 13 23 15.2385 23 18C23 20.7615 20.7617 23 18 23C15.2383 23 13 20.7615 13 18Z" fill="#6A6A6A" fill-opacity="1.000000" fill-rule="evenodd"/>
</svg>
