<svg width="23" height="23" viewBox="0 0 23 23" fill="none" xmlns="http://www.w3.org/2000/svg">
<g clip-path="url(#clip0_41_1283)">
<path d="M22.2768 7.48398C22.4205 7.8748 22.2993 8.31055 21.9893 8.58906L20.0442 10.359C20.0936 10.7318 20.1205 11.1137 20.1205 11.5C20.1205 11.8863 20.0936 12.2682 20.0442 12.641L21.9893 14.4109C22.2993 14.6895 22.4205 15.1252 22.2768 15.516C22.0791 16.0506 21.8411 16.5627 21.567 17.0568L21.3559 17.4207C21.0594 17.9148 20.727 18.382 20.3631 18.8223C20.0981 19.1457 19.6579 19.2535 19.2625 19.1277L16.7604 18.3326C16.1584 18.7953 15.4936 19.1816 14.7838 19.4736L14.2223 22.0387C14.1325 22.4475 13.818 22.7709 13.4047 22.8383C12.7848 22.9416 12.1469 22.9955 11.4955 22.9955C10.8442 22.9955 10.2063 22.9416 9.58636 22.8383C9.17308 22.7709 8.85863 22.4475 8.76879 22.0387L8.20726 19.4736C7.4975 19.1816 6.83265 18.7953 6.2307 18.3326L3.73304 19.1322C3.33773 19.258 2.8975 19.1457 2.63246 18.8268C2.26859 18.3865 1.93617 17.9193 1.63968 17.4252L1.42855 17.0613C1.15453 16.5672 0.916442 16.0551 0.718786 15.5205C0.575036 15.1297 0.696325 14.6939 1.00629 14.4154L2.9514 12.6455C2.90199 12.2682 2.87504 11.8863 2.87504 11.5C2.87504 11.1137 2.90199 10.7318 2.9514 10.359L1.00629 8.58906C0.696325 8.31055 0.575036 7.8748 0.718786 7.48398C0.916442 6.94941 1.15453 6.4373 1.42855 5.94316L1.63968 5.5793C1.93617 5.08516 2.26859 4.61797 2.63246 4.17773C2.8975 3.8543 3.33773 3.74648 3.73304 3.87227L6.23519 4.66738C6.83715 4.20469 7.50199 3.81836 8.21176 3.52637L8.77328 0.961328C8.86312 0.552539 9.17758 0.229102 9.59086 0.161719C10.2108 0.0539062 10.8487 0 11.5 0C12.1514 0 12.7893 0.0539063 13.4092 0.157227C13.8225 0.224609 14.137 0.548047 14.2268 0.956836L14.7883 3.52188C15.4981 3.81387 16.1629 4.2002 16.7649 4.66289L19.267 3.86777C19.6623 3.74199 20.1026 3.8543 20.3676 4.17324C20.7315 4.61348 21.0639 5.08066 21.3604 5.5748L21.5715 5.93867C21.8455 6.43281 22.0836 6.94492 22.2813 7.47949L22.2768 7.48398ZM11.5 15.0938C12.4532 15.0938 13.3672 14.7151 14.0412 14.0412C14.7152 13.3672 15.0938 12.4531 15.0938 11.5C15.0938 10.5469 14.7152 9.63279 14.0412 8.95884C13.3672 8.28488 12.4532 7.90625 11.5 7.90625C10.5469 7.90625 9.63283 8.28488 8.95887 8.95884C8.28491 9.63279 7.90629 10.5469 7.90629 11.5C7.90629 12.4531 8.28491 13.3672 8.95887 14.0412C9.63283 14.7151 10.5469 15.0938 11.5 15.0938Z" fill="#6A6A6A"/>
</g>
<defs>
<clipPath id="clip0_41_1283">
<rect width="23" height="23" fill="white"/>
</clipPath>
</defs>
</svg>
