<svg width="23.000000" height="23.000000" viewBox="0 0 23 23" fill="none" xmlns="http://www.w3.org/2000/svg" xmlns:xlink="http://www.w3.org/1999/xlink">
	<desc>
			Created with Pixso.
	</desc>
	<defs>
		<clipPath id="clip10_1078">
			<rect id="Uploaded to svgrepo.com" width="23.000000" height="23.000000" fill="white" fill-opacity="0"/>
		</clipPath>
	</defs>
	<rect id="Uploaded to svgrepo.com" width="23.000000" height="23.000000" fill="#FFFFFF" fill-opacity="0"/>
	<g clip-path="url(#clip10_1078)">
		<path id="Vector" d="M3.59375 6.46875L16.5312 6.46875L16.5312 7.1875L3.59375 7.1875L3.59375 6.46875ZM3.59375 9.34375L9.34375 9.34375L9.34375 15.8125L3.59375 15.8125L3.59375 9.34375ZM4.3125 15.0938L8.625 15.0938L8.625 10.0625L4.3125 10.0625L4.3125 15.0938ZM11.5 10.0625L16.5312 10.0625L16.5312 9.34375L11.5 9.34375L11.5 10.0625ZM11.5 11.5L16.5312 11.5L16.5312 10.7812L11.5 10.7812L11.5 11.5ZM11.5 14.375L16.5312 14.375L16.5312 13.6562L11.5 13.6562L11.5 14.375ZM11.5 12.9375L16.5312 12.9375L16.5312 12.2188L11.5 12.2188L11.5 12.9375ZM11.5 15.8125L16.5312 15.8125L16.5312 15.0938L11.5 15.0938L11.5 15.8125ZM23 5.03125L23 17.25C23 18.8354 21.7109 20.125 20.125 20.125L2.875 20.125C1.28906 20.125 0 18.8354 0 17.25L0 3.59375C0 3.19702 0.322266 2.875 0.71875 2.875L19.4062 2.875C19.8027 2.875 20.125 3.19702 20.125 3.59375L20.125 4.3125L22.2812 4.3125C22.6777 4.3125 23 4.63452 23 5.03125ZM21.5625 5.75L19.4062 5.75L19.4062 15.8125L18.6875 15.8125L18.6875 5.03125L18.6875 4.3125L1.4375 4.3125L1.4375 17.25C1.4375 18.0427 2.08203 18.6875 2.875 18.6875L20.125 18.6875C20.918 18.6875 21.5625 18.0427 21.5625 17.25L21.5625 5.75Z" fill="#6A6A6A" fill-opacity="1.000000" fill-rule="nonzero"/>
	</g>
</svg>
